# AST/ASF file generated using VICON BodyLanguage
# -----------------------------------------------
:version 1.10
:name VICON
:units
  mass 1.0
  length 0.45
  angle deg
:documentation
   .ast/.asf automatically generated from VICON data using
   VICON BodyBuilder and BodyLanguage model FoxedUp or BRILLIANT.MOD
:root
   order TX TY TZ RX RY RZ
   axis XYZ
   position 0 0 0  
   orientation 0 0 0 
:bonedata
  begin
     id 1 
     name lhipjoint
     direction 0.707368 -0.647095 0.284426 
     length 2.60678 
     axis 0 0 0  XYZ
  end
  begin
     id 2 
     name lfemur
     direction 0.34202 -0.939693 0  
     length 6.63812  
     axis 0 0 20  XYZ
    dof rx ry rz
    limits (-160.0 20.0)
           (-70.0 70.0)
           (-60.0 70.0)
  end
  begin
     id 3 
     name ltibia
     direction 0.34202 -0.939693 0   
     length 7.51178   
     axis 0 0 20   XYZ
    dof rx
    limits (-10.0 170.0)
  end
  begin
     id 4 
     name lfoot
     direction 0.121251 -0.333133 0.935051   
     length 1.83716   
     axis -90 7.62852e-016 20   XYZ
    dof rx rz
    limits (-45.0 90.0)
           (-70.0 20.0)
  end
  begin
     id 5 
     name ltoes
     direction 1.53611e-011 -4.21962e-011 1   
     length 0.916133   
     axis -90 7.62852e-016 20   XYZ
    dof rx
    limits (-90.0 20.0)
  end
  begin
     id 6 
     name rhipjoint
     direction -0.692419 -0.660507 0.290321   
     length 2.55385  
     axis 0 0 0  XYZ 
  end
  begin
     id 7 
     name rfemur
     direction -0.34202 -0.939693 0   
     length 7.29079   
     axis 0 0 -20   XYZ
    dof rx ry rz
    limits (-160.0 20.0)
           (-70.0 70.0)
           (-70.0 60.0)
  end
  begin
     id 8 
     name rtibia
     direction -0.34202 -0.939693 0   
     length 7.47143   
     axis 0 0 -20   XYZ
    dof rx
    limits (-10.0 170.0)
 end
 begin
     id 9 
     name rfoot
     direction -0.119907 -0.329441 0.936532   
     length 1.79439  
     axis -90 -7.62852e-016 -20   XYZ
    dof rx rz
    limits (-45.0 90.0)
           (-20.0 70.0)
  end
  begin
     id 10 
     name rtoes
     direction -1.53571e-011 -4.21961e-011 1   
     length 0.896039   
     axis -90 -7.62852e-016 -20   XYZ
    dof rx
    limits (-90.0 20.0)
  end
  begin
     id 11 
     name lowerback
     direction 0.0367721 0.992912 -0.113016   
     length 1.73542   
     axis 0 0 0   XYZ
    dof rx ry rz
    limits (-20.0 45.0)
           (-30.0 30.0)
           (-30.0 30.0)
  end
  begin
     id 12 
     name upperback
     direction -0.000314626 0.990678 0.136227   
     length 1.7514   
     axis 0 0 0   XYZ
    dof rx ry rz
    limits (-20.0 45.0)
           (-30.0 30.0)
           (-30.0 30.0)
  end
  begin
     id 13 
     name thorax
     direction -0.0226159 0.981151 0.191917   
     length 1.71471   
     axis 0 0 0   XYZ
    dof rx ry rz
    limits (-20.0 45.0)
           (-30.0 30.0)
           (-30.0 30.0)
  end
  begin
     id 14 
     name lowerneck
     direction 0.0219333 0.998071 0.0580739   
     length 1.65882   
     axis 0 0 0   XYZ
    dof rx ry rz
    limits (-20.0 45.0)
           (-30.0 30.0)
           (-30.0 30.0)
  end
  begin
     id 15 
     name upperneck
     direction 0.0384529 0.980058 -0.194957   
     length 1.6612   
     axis 0 0 0   XYZ
    dof rx ry rz
    limits (-20.0 45.0)
           (-30.0 30.0)
           (-30.0 30.0)
  end
  begin
     id 16
     name head
     direction 0.00592123 0.997421 -0.0715234  
     length 1.68077  
     axis 0 0 0   XYZ
    dof rx ry rz
    limits (-20.0 45.0)
           (-30.0 30.0)
           (-30.0 30.0)
  end
  begin
     id 17 
     name lclavicle
     direction 0.904803 0.417826 0.0821728  
     length 3.42227  
     axis 0 0 0   XYZ
    dof ry rz
    limits (-20.0 10.0)
           (0.0 20.0)
  end
  begin
     id 18 
     name lhumerus
     direction 1 -4.48965e-011 -2.68786e-027   
     length 5.11878   
     axis -180 -30 -90   XYZ
    dof rx ry rz
    limits (-60.0 90.0)
           (-90.0 90.0)
           (-90.0 90.0)
  end
  begin
     id 19
     name lradius
     direction 1 -4.48965e-011 2.61168e-028   
     length 3.59971   
     axis -180 -30 -90   XYZ
    dof rx
    limits (-10.0 170.0)
  end
  begin
     id 20
     name lwrist
     direction 1 -4.48965e-011 1.58672e-027   
     length 1.79985   
     axis -1.65735e-015 90 90   XYZ
    dof ry
    limits (-180.0 0.0)
 end
  begin
     id 21 
     name lhand
     direction 1 -4.48942e-011 3.17344e-027   
     length 0.62877   
     axis -2.02492e-015 90 90   XYZ
    dof rx rz
    limits (-90.0 90.0)
           (-45.0 45.0)
  end
  begin
     id 22 
     name lfingers
     direction 1 -4.49011e-011 6.34687e-027   
     length 0.506931   
     axis -4.04985e-015 90 90   XYZ
    dof rx
    limits (0.0 90.0)
  end
  begin
     id 23
     name lthumb
     direction 0.707107 -6.34982e-011 0.707107   
     length 0.727854   
     axis -90 45 2.85299e-015   XYZ
    dof rx rz
    limits (-45.0 45.0)
           (-45.0 45.0)
  end
  begin
     id 24 
     name rclavicle
     direction -0.945647 0.32488 0.0143075   
     length 3.52737  
     axis 0 0 0   XYZ 
    dof ry rz
    limits (-10.0 20.0)
           (-20.0 0.0)
  end
  begin
     id 25 
     name rhumerus
     direction -1 -4.48962e-011 1.92182e-027  
     length 5.4902   
     axis -180 30 90   XYZ
    dof rx ry rz
    limits (-90.0 60.0)
           (-90.0 90.0)
           (-90.0 90.0)
  end
  begin
     id 26 
     name rradius
     direction -1 -4.48967e-011 -5.97193e-028   
     length 3.20659   
     axis -180 30 90   XYZ
    dof rx
    limits (-10.0 170.0)
  end
  begin
     id 27 
     name rwrist
     direction -1 -4.48964e-011 1.58672e-027   
     length 1.6033   
     axis -1.65735e-015 -90 -90   XYZ
    dof ry
    limits (-180.0 0.0)
  end
  begin
     id 28
     name rhand
     direction -1 -4.49006e-011 3.17344e-027   
     length 0.691885   
     axis -2.02492e-015 -90 -90   XYZ
    dof rx rz
    limits (-90.0 90.0)
           (-45.0 45.0)
  end
  begin
     id 29
     name rfingers
     direction -1 -4.48908e-011 6.34687e-027   
     length 0.557815   
     axis -4.04985e-015 -90 -90   XYZ
    dof rx
    limits (0.0 90.0)
  end
  begin
     id 30
     name rthumb
     direction -0.707107 -6.34999e-011 0.707107   
     length 0.800915   
     axis -90 -45 -2.85299e-015   XYZ
    dof rx rz
    limits (-45.0 45.0)
           (-45.0 45.0)
  end
:hierarchy
  begin
    root lhipjoint rhipjoint lowerback
    lhipjoint lfemur
    lfemur ltibia
    ltibia lfoot
    lfoot ltoes
    rhipjoint rfemur
    rfemur rtibia
    rtibia rfoot
    rfoot rtoes
    lowerback upperback
    upperback thorax
    thorax lowerneck lclavicle rclavicle
    lowerneck upperneck
    upperneck head
    lclavicle lhumerus
    lhumerus lradius
    lradius lwrist
    lwrist lhand lthumb
    lhand lfingers
    rclavicle rhumerus
    rhumerus rradius
    rradius rwrist
    rwrist rhand rthumb
    rhand rfingers
  end

#!OML:ASF I:\Actors\actors\Patient Classification 1\Patient 1\Session 1\Subject1.ASF
:FULLY-SPECIFIED
:DEGREES
50
root -0.415881 17.527 7.62736 5.76543 -3.77202 -5.14595
lowerback -0.732334 0.432269 1.82084
upperback -9.55387 0.795861 1.77335
thorax -9.68145 0.326131 0.807243
lowerneck -3.64252 -7.88017 -6.75585
upperneck 14.9766 -11.3915 7.8389
head 5.95889 -5.45703 2.78985
rclavicle -6.73383e-015 6.95746e-016
rhumerus -47.7363 -11.2375 -80.4538
rradius 24.0681
rwrist 15.7534
rhand 18.6933 -32.5266
rfingers 7.12502
rthumb 43.3159 -56.66
lclavicle -6.73383e-015 6.95746e-016
lhumerus -45.7996 6.86011 85.4585
lradius 21.4084
lwrist -27.6395
lhand -14.9812 -12.5444
lfingers 7.12502
lthumb 11.1829 17.1376
rfemur -0.526222 22.1381 22.8328
rtibia 2.33628
rfoot -10.9862 -19.0839
rtoes -0.984848
lfemur 9.08033 -39.0427 -20.3632
ltibia -3.81034
lfoot -14.4928 47.3972
ltoes 7.29184
51
root -0.420264 17.5286 7.63204 5.75458 -3.66873 -5.26398
lowerback -0.740779 0.434285 1.88329
upperback -9.54586 0.805255 1.82268
thorax -9.66791 0.328338 0.824092
lowerneck -3.88708 -7.57036 -6.39547
upperneck 14.8574 -10.931 7.58255
head 5.89317 -5.22469 2.68384
rclavicle -2.78299e-015 -2.0276e-014
rhumerus -48.076 -10.7427 -80.7453
rradius 24.3872
rwrist 12.6423
rhand 19.5564 -33.7498
rfingers 7.12502
rthumb 44.1216 -57.5872
lclavicle -2.78299e-015 -2.0276e-014
lhumerus -45.7104 7.86044 84.7418
lradius 21.3957
lwrist -27.6759
lhand -16.0677 -12.927
lfingers 7.12502
lthumb 10.1349 16.8089
rfemur -0.429147 22.0829 23.0278
rtibia 2.26685
rfoot -10.9595 -19.2403
rtoes -1.31492
lfemur 8.88172 -38.5508 -19.9789
ltibia -3.7717
lfoot -14.2737 46.7945
ltoes 6.94849
52
root -0.424784 17.5302 7.63594 5.73398 -3.56654 -5.34248
lowerback -0.733396 0.456553 1.91154
upperback -9.53276 0.838267 1.83883
thorax -9.65773 0.343343 0.822805
lowerneck -4.18185 -7.30848 -6.14393
upperneck 14.8377 -10.5724 7.56105
head 5.8959 -5.02999 2.65617
rclavicle 7.20594e-016 1.56046e-014
rhumerus -48.4732 -10.024 -81.3126
rradius 25.1398
rwrist 9.91039
rhand 20.1696 -35.4815
rfingers 7.12502
rthumb 44.693 -59.101
lclavicle 7.20594e-016 1.56046e-014
lhumerus -45.5723 9.07287 83.8289
lradius 21.3656
lwrist -27.6929
lhand -15.9473 -12.796
lfingers 7.12502
lthumb 10.251 16.9342
rfemur -0.341723 22.0566 23.1744
rtibia 2.21717
rfoot -10.956 -19.3951
rtoes -1.37022
lfemur 8.6049 -37.9981 -19.6159
ltibia -3.61221
lfoot -14.1174 46.0997
ltoes 6.56749
53
root -0.42707 17.5313 7.63962 5.70234 -3.44166 -5.32218
lowerback -0.716567 0.482828 1.87922
upperback -9.51702 0.871312 1.81765
thorax -9.64997 0.361514 0.815537
lowerneck -4.3497 -7.07271 -5.74288
upperneck 14.5861 -10.2286 7.3824
head 5.79071 -4.85166 2.56179
rclavicle 3.40419e-015 -1.59028e-014
rhumerus -48.8741 -8.88196 -82.2742
rradius 26.2744
rwrist 7.46171
rhand 20.1402 -37.3682
rfingers 7.12502
rthumb 44.6657 -60.9983
lclavicle 3.40419e-015 -1.59028e-014
lhumerus -45.4093 10.5486 82.7192
lradius 21.2993
lwrist -27.9751
lhand -15.3053 -12.432
lfingers 7.12502
lthumb 10.8703 17.2667
rfemur -0.249154 21.9915 23.1969
rtibia 2.16135
rfoot -10.939 -19.5286
rtoes -1.44406
lfemur 8.36068 -37.5675 -19.4478
ltibia -3.40813
lfoot -13.8891 45.5206
ltoes 6.09757
54
root -0.427742 17.5306 7.64168 5.65658 -3.31206 -5.29656
lowerback -0.664884 0.545699 1.847
upperback -9.48474 0.95454 1.79486
thorax -9.64449 0.40436 0.802298
lowerneck -4.68145 -6.90308 -5.46172
upperneck 14.5401 -9.98276 7.25018
head 5.79521 -4.7171 2.4843
rclavicle 1.3244e-014 1.88845e-015
rhumerus -49.3111 -7.25939 -83.6229
rradius 27.9051
rwrist 4.85479
rhand 19.4127 -39.2352
rfingers 7.12502
rthumb 43.9875 -63.1227
lclavicle 1.3244e-014 1.88845e-015
lhumerus -45.2256 11.9431 81.7235
lradius 21.3475
lwrist -28.1886
lhand -14.7993 -12.1879
lfingers 7.12502
lthumb 11.3583 17.4845
rfemur -0.172679 21.9528 23.2211
rtibia 2.17642
rfoot -10.9555 -19.683
rtoes -1.49141
lfemur 8.15982 -37.0914 -19.2986
ltibia -3.27693
lfoot -13.4786 44.9289
ltoes 5.28524
55
root -0.427933 17.53 7.64047 5.6295 -3.16901 -5.2903
lowerback -0.587943 0.665781 1.85039
upperback -9.45819 1.11609 1.74881
thorax -9.65961 0.48159 0.738159
lowerneck -5.02966 -6.80628 -5.37109
upperneck 14.5495 -9.85036 7.2919
head 5.84662 -4.63522 2.48106
rclavicle 6.41081e-015 7.95139e-016
rhumerus -49.9216 -5.54146 -85.1588
rradius 30.2121
rwrist 2.21623
rhand 18.343 -41.2311
rfingers 7.12502
rthumb 42.9884 -65.4812
lclavicle 6.41081e-015 7.95139e-016
lhumerus -45.0167 13.1103 80.8987
lradius 21.4977
lwrist -28.2044
lhand -14.2496 -11.9536
lfingers 7.12502
lthumb 11.8885 17.6888
rfemur -0.18384 21.935 23.245
rtibia 2.29019
rfoot -11.0257 -19.8387
rtoes -1.4087
lfemur 7.91593 -36.6164 -19.0856
ltibia -3.16412
lfoot -13.2037 44.3315
ltoes 4.53424
56
root -0.427709 17.5303 7.63829 5.65978 -2.99949 -5.27986
lowerback -0.562577 0.791843 1.89125
upperback -9.45566 1.28457 1.6785
thorax -9.66935 0.557921 0.627221
lowerneck -5.25851 -6.69952 -5.4837
upperneck 14.479 -9.72617 7.61333
head 5.87686 -4.55385 2.60231
rclavicle -1.15792e-014 -1.92821e-014
rhumerus -50.7476 -3.84989 -86.8104
rradius 33.2984
rwrist -0.353096
rhand 16.9743 -43.2739
rfingers 7.12502
rthumb 41.7067 -67.9614
lclavicle -1.15792e-014 -1.92821e-014
lhumerus -44.7947 14.1041 80.1493
lradius 21.7022
lwrist -27.9571
lhand -13.6069 -11.7536
lfingers 7.12502
lthumb 12.5081 17.852
rfemur -0.310942 21.8041 23.204
rtibia 2.43871
rfoot -11.1134 -19.9048
rtoes -1.30253
lfemur 7.65596 -36.3929 -18.9015
ltibia -3.0614
lfoot -13.1792 43.946
ltoes 4.47828
57
root -0.428806 17.5307 7.63842 5.70393 -2.77994 -5.29386
lowerback -0.585047 0.892733 1.93412
upperback -9.43874 1.41958 1.63832
thorax -9.63473 0.619542 0.550363
lowerneck -5.44208 -6.61402 -5.43658
upperneck 14.2838 -9.60355 7.70407
head 5.84103 -4.48337 2.62875
rclavicle 1.02374e-014 -2.5842e-015
rhumerus -51.6577 -2.03068 -88.5663
rradius 37.0543
rwrist -3.23705
rhand 14.6254 -44.9595
rfingers 7.12502
rthumb 39.4989 -70.3348
lclavicle 1.02374e-014 -2.5842e-015
lhumerus -44.5103 14.8723 79.5925
lradius 22.0346
lwrist -27.1421
lhand -12.8011 -11.2829
lfingers 7.12502
lthumb 13.2849 18.2736
rfemur -0.41216 21.7157 23.2066
rtibia 2.55524
rfoot -11.2219 -20.0288
rtoes -1.04151
lfemur 7.44384 -36.3098 -18.7193
ltibia -3.01352
lfoot -13.0752 43.6643
ltoes 4.56178
58
root -0.430431 17.5308 7.64007 5.68904 -2.44905 -5.34044
lowerback -0.543358 0.967196 1.99539
upperback -9.40429 1.52428 1.62909
thorax -9.61906 0.666322 0.497573
lowerneck -5.62857 -6.5642 -5.18162
upperneck 13.999 -9.49022 7.43728
head 5.75136 -4.43187 2.51021
rclavicle 7.45443e-016 5.36719e-015
rhumerus -52.5237 -0.208647 -90.2804
rradius 41.2271
rwrist -6.67588
rhand 11.064 -46.4258
rfingers 7.12502
rthumb 36.1348 -72.7091
lclavicle 7.45443e-016 5.36719e-015
lhumerus -44.2092 15.4646 79.2211
lradius 22.523
lwrist -25.9338
lhand -12.8449 -11.0449
lfingers 7.12502
lthumb 13.2427 18.5144
rfemur -0.377677 21.6693 23.3031
rtibia 2.61403
rfoot -11.3315 -20.2615
rtoes -0.799259
lfemur 7.26843 -36.1602 -18.4962
ltibia -2.97911
lfoot -12.7174 43.2268
ltoes 4.04485
59
root -0.430222 17.5313 7.64244 5.61719 -2.05273 -5.34079
lowerback -0.467919 1.03451 2.06002
upperback -9.36061 1.61979 1.60891
thorax -9.61244 0.707763 0.431379
lowerneck -5.74563 -6.52496 -5.1222
upperneck 13.7141 -9.39916 7.33206
head 5.66875 -4.39248 2.47403
rclavicle -7.50412e-015 7.35503e-015
rhumerus -53.2533 1.26831 -91.6491
rradius 45.5808
rwrist -9.83553
rhand 7.47858 -47.7438
rfingers 7.12502
rthumb 32.7311 -74.8004
lclavicle -7.50412e-015 7.35503e-015
lhumerus -43.9712 16.0751 78.8653
lradius 23.0849
lwrist -24.7097
lhand -13.8601 -11.3819
lfingers 7.12502
lthumb 12.264 18.2385
rfemur -0.261965 21.5372 23.3568
rtibia 2.63974
rfoot -11.4372 -20.4882
rtoes -0.660217
lfemur 7.17228 -36.0331 -18.3809
ltibia -2.96474
lfoot -12.1914 42.7432
ltoes 3.0005
60
root -0.428807 17.5335 7.64458 5.51131 -1.63069 -5.31883
lowerback -0.409793 1.11153 2.15757
upperback -9.2897 1.72706 1.56827
thorax -9.56304 0.751778 0.324474
lowerneck -5.78168 -6.53386 -5.183
upperneck 13.4013 -9.38307 7.36243
head 5.5809 -4.38928 2.49613
rclavicle 1.1778e-014 0
rhumerus -53.6085 2.36593 -92.6523
rradius 49.7175
rwrist -12.1863
rhand 4.36579 -48.6763
rfingers 7.12502
rthumb 29.7649 -76.3059
lclavicle 1.1778e-014 0
lhumerus -43.8034 17.0648 78.2083
lradius 23.5386
lwrist -23.7261
lhand -14.511 -11.9282
lfingers 7.12502
lthumb 11.6364 17.7287
rfemur -0.0873667 21.4111 23.3985
rtibia 2.63927
rfoot -11.5532 -20.743
rtoes -0.464837
lfemur 7.15937 -35.9558 -18.3361
ltibia -3.00901
lfoot -11.6598 42.2856
ltoes 1.83453
61
root -0.427633 17.5361 7.64274 5.40845 -1.18612 -5.33326
lowerback -0.300819 1.18353 2.32658
upperback -9.22802 1.83175 1.50715
thorax -9.55124 0.78738 0.155227
lowerneck -5.84005 -6.57767 -5.12845
upperneck 13.1022 -9.40986 7.27002
head 5.49284 -4.40845 2.45748
rclavicle -6.75868e-015 -1.47101e-014
rhumerus -53.3598 3.34343 -93.5297
rradius 53.3461
rwrist -14.136
rhand 1.36141 -49.5857
rfingers 7.12502
rthumb 26.8937 -77.6925
lclavicle -6.75868e-015 -1.47101e-014
lhumerus -43.7536 18.3419 77.2362
lradius 23.9972
lwrist -22.8361
lhand -14.9031 -12.9699
lfingers 7.12502
lthumb 11.2582 16.708
rfemur 0.077356 21.2883 23.4786
rtibia 2.62183
rfoot -11.6839 -21.0068
rtoes -0.185426
lfemur 7.11148 -35.9005 -18.2249
ltibia -3.02858
lfoot -11.3381 41.8151
ltoes 1.1288
62
root -0.428035 17.5381 7.63557 5.33759 -0.829677 -5.32928
lowerback -0.141834 1.26968 2.46667
upperback -9.18606 1.9553 1.42816
thorax -9.59042 0.83298 -0.019755
lowerneck -5.85848 -6.61864 -4.88695
upperneck 12.761 -9.42833 7.01181
head 5.36765 -4.4269 2.34074
rclavicle -6.60959e-015 -2.76311e-014
rhumerus -52.4665 4.26901 -94.2938
rradius 56.6968
rwrist -15.6477
rhand -0.937706 -51.0114
rfingers 7.12502
rthumb 24.6919 -79.4382
lclavicle -6.60959e-015 -2.76311e-014
lhumerus -43.7505 19.2668 76.4907
lradius 24.8618
lwrist -21.5589
lhand -15.1018 -13.0734
lfingers 7.12502
lthumb 11.0666 16.6149
rfemur 0.144355 21.1828 23.5063
rtibia 2.63198
rfoot -11.7682 -21.2214
rtoes 0.0773113
lfemur 6.98709 -35.8816 -18.1125
ltibia -2.96257
lfoot -11.3143 41.4234
ltoes 1.26203
63
root -0.428465 17.5392 7.62272 5.32371 -0.628746 -5.38185
lowerback 0.00725612 1.40672 2.66828
upperback -9.14732 2.15169 1.36433
thorax -9.62393 0.909989 -0.218984
lowerneck -5.96445 -6.62122 -4.53928
upperneck 12.6362 -9.40515 6.655
head 5.31215 -4.42069 2.17538
rclavicle 1.65985e-014 -1.82882e-014
rhumerus -50.95 5.08772 -94.8762
rradius 59.8411
rwrist -16.6969
rhand -2.22934 -52.4005
rfingers 7.12502
rthumb 23.4534 -80.9911
lclavicle 1.65985e-014 -1.82882e-014
lhumerus -43.4532 22.2092 74.569
lradius 24.4121
lwrist -22.5916
lhand -15.2508 -12.6496
lfingers 7.12502
lthumb 10.9228 17.0463
rfemur 0.0544837 21.0434 23.5455
rtibia 2.73355
rfoot -11.773 -21.2646
rtoes 0.109588
lfemur 6.78415 -35.8495 -17.9075
ltibia -2.86932
lfoot -11.3945 41.1537
ltoes 1.58532
